<?xml version="1.0" standalone="no"?>
<!DOCTYPE svg PUBLIC "-//W3C//DTD SVG 20010904//EN"
 "http://www.w3.org/TR/2001/REC-SVG-20010904/DTD/svg10.dtd">
<svg version="1.0" xmlns="http://www.w3.org/2000/svg"
 width="608.000000pt" height="608.000000pt" viewBox="0 0 608.000000 608.000000"
 preserveAspectRatio="xMidYMid meet">
<metadata>
Created by potrace 1.14, written by Peter Selinger 2001-2017
</metadata>
<g transform="translate(0.000000,608.000000) scale(0.100000,-0.100000)"
fill="#000000" stroke="none">
<path d="M213 5074 c-56 -28 -79 -109 -47 -163 30 -50 64 -61 194 -61 l118 0
27 -87 c14 -49 31 -104 38 -123 6 -19 12 -39 13 -45 2 -5 12 -41 24 -80 12
-38 22 -74 24 -80 1 -5 7 -26 13 -45 6 -19 25 -80 42 -135 16 -55 71 -235 121
-400 50 -165 100 -329 111 -365 12 -36 22 -72 24 -80 2 -8 21 -73 43 -145 22
-71 96 -317 165 -545 69 -228 165 -543 212 -700 48 -157 94 -308 102 -337 l15
-52 127 0 126 0 47 53 c55 62 163 121 252 137 146 26 308 -34 409 -151 l33
-39 587 0 587 0 43 46 c183 196 470 200 652 8 l51 -53 126 -1 126 0 30 82 c16
45 66 188 111 317 46 129 87 244 92 255 11 27 39 108 39 117 0 4 -37 -9 -82
-28 -46 -19 -111 -44 -145 -55 -49 -16 -63 -26 -71 -47 -5 -15 -38 -106 -72
-202 -34 -96 -66 -180 -71 -187 -8 -8 -362 -11 -1414 -11 l-1404 1 -10 31 c-6
17 -44 144 -86 281 -42 138 -78 258 -81 268 -5 16 28 17 587 17 l592 0 -62 63
c-34 34 -80 88 -103 119 l-42 57 -524 0 c-288 0 -525 1 -526 3 -2 2 -23 73
-49 158 -25 85 -52 176 -60 203 -14 43 -14 47 1 48 10 0 244 1 522 1 l506 1
-2 56 c0 31 2 83 7 116 4 32 6 61 4 64 -3 2 -257 4 -565 4 l-560 0 -26 86
c-14 47 -29 97 -34 111 -5 14 -30 95 -55 180 -26 85 -61 205 -80 265 -18 61
-47 155 -64 210 -16 55 -55 182 -86 283 -31 101 -58 191 -60 200 -3 9 -30 101
-61 205 l-57 187 -206 0 c-167 0 -212 -3 -238 -16z"/>
<path d="M1129 4509 c-53 -8 -79 -27 -99 -71 -20 -45 -14 -86 17 -120 42 -47
38 -46 613 -46 l545 0 3 -166 2 -166 -22 -1 c-13 0 -161 -1 -329 -2 -284 -2
-308 -3 -328 -21 -69 -62 -36 -215 48 -217 35 -1 486 -1 701 0 l176 1 16 28
c25 42 123 146 163 173 19 13 35 27 35 30 0 4 -50 6 -110 5 l-110 -1 0 30 c-3
172 -2 297 3 301 4 4 1090 8 1218 4 14 0 16 -19 18 -147 l1 -148 49 -45 c27
-25 92 -86 145 -137 l96 -92 53 0 c28 1 222 0 429 0 279 -1 382 1 396 10 70
44 62 191 -12 219 -13 4 -224 8 -469 7 -391 -2 -447 0 -448 13 -2 65 1 313 5
317 5 6 1356 6 1362 0 2 -2 -9 -40 -25 -83 -16 -43 -52 -142 -79 -219 -27 -77
-79 -222 -115 -322 -35 -101 -61 -183 -57 -183 15 0 107 74 184 148 l55 54 32
-16 c18 -9 33 -15 35 -14 3 4 55 140 59 158 3 13 57 164 220 620 19 52 32 96
30 98 -6 7 -4468 8 -4506 1z"/>
<path d="M3160 4032 c-311 -27 -571 -204 -705 -478 -59 -121 -84 -237 -81
-379 3 -136 22 -223 71 -332 110 -240 310 -408 564 -474 86 -23 236 -31 326
-18 50 7 77 4 158 -16 54 -14 120 -27 145 -31 26 -3 55 -8 64 -9 47 -9 205
-18 298 -17 148 1 257 14 400 44 134 28 308 87 431 145 l104 50 54 154 c30 85
56 160 59 167 2 7 -44 -19 -104 -58 -302 -197 -631 -315 -991 -356 -69 -8
-305 -12 -346 -6 -28 4 -27 5 25 35 56 31 121 80 176 131 28 26 41 31 90 32
56 1 147 10 207 20 17 3 41 7 55 9 46 7 85 16 135 30 28 7 76 21 109 30 138
38 374 158 510 259 166 123 253 217 287 310 47 126 46 127 -10 69 -258 -264
-585 -456 -934 -548 -106 -28 -308 -64 -320 -58 -5 3 -2 12 6 21 8 10 16 24
19 33 5 13 77 32 208 53 51 8 213 57 225 67 5 5 15 9 23 9 34 0 218 92 391
195 78 47 231 173 320 264 71 73 191 216 191 228 0 4 -28 -21 -62 -53 -35 -33
-81 -73 -103 -89 -22 -17 -42 -33 -45 -36 -3 -4 -41 -29 -85 -56 -200 -124
-430 -201 -660 -221 -114 -10 -292 -5 -300 8 -2 3 -5 37 -6 76 -1 38 -6 83
-10 99 -5 17 -11 45 -14 64 -10 57 -64 177 -115 254 -109 167 -281 293 -471
347 -86 24 -214 39 -289 32z"/>
<path d="M4125 3360 c-2 -4 9 -90 13 -105 1 -3 2 -12 2 -20 0 -14 18 -15 133
-10 163 6 187 9 312 41 85 22 270 90 255 94 -16 4 -712 4 -715 0z"/>
<path d="M1968 1766 c-129 -37 -230 -138 -269 -268 -100 -329 236 -619 546
-473 137 65 225 200 226 348 0 83 -6 111 -42 184 -64 132 -186 213 -333 219
-49 2 -100 -2 -128 -10z m185 -215 c116 -50 146 -210 54 -299 -123 -119 -317
-35 -317 137 0 93 88 181 182 181 20 0 56 -9 81 -19z"/>
<path d="M3889 1767 c-208 -59 -333 -275 -279 -483 59 -223 286 -348 504 -278
205 65 320 285 258 491 -21 68 -70 145 -122 190 -29 25 -115 71 -151 79 -51
13 -166 13 -210 1z m187 -217 c52 -26 95 -86 101 -144 18 -153 -142 -260 -276
-185 -40 22 -91 90 -92 124 0 11 -2 28 -4 38 -10 51 44 135 107 166 54 26 110
27 164 1z"/>
</g>
</svg>
